<svg xmlns="http://www.w3.org/2000/svg" width="245" height="68" viewBox="0 0 245 68" fill="none"><path d="M218.652 37.2039C218.058 37.2039 217.465 37.5013 217.019 37.9475C216.574 38.3938 216.276 38.9887 216.276 39.5837C216.276 40.1786 216.425 40.6249 216.871 40.9224C217.316 41.2199 217.761 41.3686 218.356 41.3686C218.949 41.3686 219.543 41.0711 219.988 40.6249C220.434 40.1786 220.73 39.5837 220.73 38.9887C220.73 38.3938 220.581 37.9475 220.136 37.65C219.69 37.3526 219.245 37.2039 218.652 37.2039Z" fill="#EE2D79"></path><path d="M134.932 12.6626L124.69 13.2575C123.651 13.2575 122.315 14.15 121.572 14.8937L107.916 33.189C107.322 34.0814 106.432 33.9327 105.987 33.0402L98.8615 16.8273C98.4162 15.935 97.2287 15.1912 96.1897 15.1912L86.6896 15.7861C85.6506 15.7861 84.6114 16.8273 84.4631 17.7198L76.8927 55.9465C76.7442 56.9877 77.338 57.7314 78.3771 57.7314L89.5099 56.9877C90.5489 56.9877 91.588 56.0952 91.7364 55.054L94.1114 43.3034C94.2599 42.2622 94.8537 42.1135 95.299 43.1547L99.1584 51.4842C99.6037 52.3767 100.791 53.1204 101.83 52.9717L105.244 52.823C106.283 52.823 107.619 51.9305 108.213 51.1867L115.783 40.6261C116.378 39.7336 116.823 39.8823 116.525 40.9236L114.002 53.864C113.854 54.9053 114.447 55.649 115.487 55.649L126.62 54.9053C127.658 54.9053 128.698 53.864 128.846 52.9717L136.416 14.745C136.713 13.4064 135.972 12.6626 134.932 12.6626Z" fill="#EE2D79"></path><path d="M235.127 7.7529C235.721 6.86044 235.423 6.26547 234.385 6.26547L221.768 7.00918C220.728 7.00918 219.392 7.7529 218.65 8.64535L210.932 18.6111C210.337 19.5035 209.448 19.3547 209.002 18.4624L205.588 9.83527C205.143 8.94283 204.103 8.19912 203.065 8.19912L190.447 9.09157L191.783 2.39818C191.932 1.35699 191.338 0.613281 190.299 0.613281L180.057 1.20825C179.017 1.20825 177.681 2.10071 176.939 2.84441L163.135 21.2884C162.541 22.1809 161.65 22.0321 161.205 21.1397L154.08 4.9268C153.635 4.03434 152.447 3.29063 151.408 3.29063L141.909 3.8856C140.869 3.8856 139.829 4.9268 139.682 5.81925L132.112 44.0459C131.963 45.0871 132.557 45.8308 133.595 45.8308L144.728 45.0871C145.767 45.0871 146.806 44.1946 146.955 43.1535L149.33 31.4028C149.479 30.3616 150.072 30.2129 150.517 31.2541L154.377 39.5837C154.822 40.4761 156.009 41.2198 157.049 41.0711L160.463 40.9224C161.501 40.9224 162.837 40.0299 163.432 39.2861L171.002 28.7255C171.596 27.833 172.041 27.9818 171.744 29.023L169.22 41.9636C169.073 43.0047 169.666 43.7484 170.705 43.7484L181.838 43.0047C182.877 43.0047 183.916 41.9636 184.064 41.0711L189.705 12.6614L198.166 33.3365C198.611 34.2289 198.76 35.8651 198.462 36.9064L196.088 48.6569C195.939 49.6981 196.533 50.4419 197.573 50.4419L210.19 49.6981C211.228 49.6981 212.268 48.8056 212.416 47.7644L214.791 36.0139C214.94 34.9727 215.682 33.4853 216.424 32.5928L235.127 7.7529Z" fill="#EE2D79"></path><path d="M81.4955 25.4535C81.644 24.4124 81.0502 23.6686 80.0111 23.6686L67.6908 24.4124C66.6517 24.4124 65.6126 25.3048 65.4643 26.346L61.308 47.1699C60.7143 49.8472 60.1205 51.7809 59.2298 52.9708C58.3392 54.1608 57.1517 54.7557 55.5189 54.9044C52.5502 55.0531 51.0658 53.5657 51.0658 50.4422C51.0658 49.9959 51.0658 49.5497 51.0658 49.1036C51.2142 48.0623 55.3704 26.941 55.3704 26.941C55.5189 25.8998 54.9252 25.156 53.886 25.156L41.2688 25.8998L52.5502 10.8768C53.1439 9.98437 52.847 9.3894 51.8079 9.3894L38.7454 10.2819C37.7063 10.2819 36.3704 11.1743 35.6282 11.918L24.347 27.2385C23.7532 28.1309 22.8626 27.9821 22.4172 27.0897L17.0735 13.7029C16.6281 12.8105 15.5891 12.0668 14.55 12.0668L1.48748 12.9592C0.448421 12.9592 -0.145332 13.8517 0.299984 14.7442L11.2844 42.1126C11.7298 43.0051 11.8781 44.6413 11.5813 45.6825L8.76094 60.4079C8.6125 61.4491 9.20625 62.1928 10.2453 62.1928L23.1595 61.3004C24.1985 61.3004 25.2376 60.2592 25.386 59.3667L28.2063 44.79C28.3547 43.7488 29.097 42.2614 29.6907 41.3689L38.5969 29.6183L34.7376 49.1036C34.4407 50.591 34.2922 52.0783 34.2922 53.417C34.2922 56.5406 35.0345 59.218 36.5188 61.4491C38.0032 63.6802 40.2298 65.4651 43.0501 66.5063C45.8704 67.5476 49.2845 67.9937 53.1439 67.845C59.8235 67.3987 65.0189 65.4651 69.0267 61.8953C73.0346 58.3255 75.558 53.417 76.894 47.0211L81.4955 25.4535Z" fill="#EE2D79"></path><path d="M231.567 31.2553C230.973 30.9578 230.379 30.8091 229.786 30.8091C228.895 30.8091 228.004 31.2553 227.41 31.999C227.41 31.8503 227.41 31.8503 227.41 31.7014C227.41 31.2553 227.114 31.2553 226.52 31.2553L224.887 31.404C224.441 31.404 223.996 31.8503 223.848 32.4452C223.848 32.4452 221.77 43.0059 221.77 43.1547C221.622 43.6008 221.918 44.047 222.512 44.047L224.294 43.8983C224.739 43.8983 225.332 43.3034 225.481 42.8571V42.4109L226.074 39.4361C226.52 40.1798 227.41 40.4773 228.598 40.3285C229.488 40.3285 230.231 40.031 230.973 39.4361C231.715 38.9898 232.309 38.2462 232.755 37.5024C233.2 36.7588 233.348 35.8663 233.348 34.8251C233.348 33.9326 233.2 33.189 232.755 32.5939C232.606 31.999 232.012 31.5527 231.567 31.2553ZM229.192 36.7588C228.895 37.205 228.45 37.3537 228.004 37.3537C227.559 37.3537 227.263 37.205 226.965 37.0562C226.668 36.7588 226.668 36.4612 226.668 36.015C226.668 35.42 226.817 34.8251 227.114 34.5276C227.41 34.0813 227.856 33.9326 228.301 33.9326C228.746 33.9326 229.043 34.0813 229.341 34.2301C229.637 34.5276 229.637 34.8251 229.637 35.2713C229.637 35.8663 229.488 36.3125 229.192 36.7588Z" fill="#EE2D79"></path><path d="M243.591 30.8081C242.998 30.3618 242.255 30.0643 241.365 30.2131C240.919 30.2131 240.623 30.3618 240.177 30.5105C239.732 30.6593 239.287 30.9568 238.99 31.2543L239.584 28.1306C239.732 27.6845 239.287 27.2383 238.841 27.2383L237.061 27.387C236.616 27.387 236.021 27.9819 235.872 28.4282L233.794 38.9888C233.647 39.4351 234.092 39.8813 234.538 39.8813L236.318 39.7326C236.763 39.7326 237.357 39.2863 237.506 38.6914L238.248 35.2703C238.545 34.0803 238.99 33.4854 239.881 33.4854C240.475 33.4854 240.772 33.7829 240.772 34.3778L240.03 38.5427C239.881 38.9888 240.326 39.4351 240.772 39.4351L242.553 39.2863C242.998 39.2863 243.591 38.6914 243.591 38.2452L244.333 34.2291C244.482 33.6342 244.779 31.5517 243.591 30.8081Z" fill="#EE2D79"></path></svg>